<?xml version="1.0" standalone="no"?>
<!DOCTYPE svg PUBLIC "-//W3C//DTD SVG 20010904//EN"
 "http://www.w3.org/TR/2001/REC-SVG-20010904/DTD/svg10.dtd">
<svg version="1.0" xmlns="http://www.w3.org/2000/svg"
 width="280.000000pt" height="280.000000pt" viewBox="0 0 280.000000 280.000000"
 preserveAspectRatio="xMidYMid meet">
<metadata>
Created by potrace 1.14, written by Peter Selinger 2001-2017
</metadata>
<g transform="translate(0.000000,280.000000) scale(0.100000,-0.100000)"
fill="#000000" stroke="none">
<path d="M0 1400 l0 -1400 1400 0 1400 0 0 1400 0 1400 -1400 0 -1400 0 0
-1400z m1068 1008 c8 -8 12 -47 12 -110 l0 -98 40 0 c27 0 42 -5 49 -17 11
-21 10 -22 41 45 25 56 48 76 74 66 32 -12 27 -43 -29 -153 -48 -97 -58 -111
-80 -111 -21 0 -29 9 -45 45 -11 25 -26 45 -35 45 -13 0 -15 -19 -15 -120 l0
-120 315 0 315 0 0 104 0 105 -27 3 c-19 2 -32 12 -42 32 l-13 29 -32 -59
c-25 -47 -36 -59 -55 -59 -49 0 -47 25 10 140 30 60 62 114 71 119 25 15 53
-16 72 -79 l15 -50 0 116 c1 75 5 119 13 127 8 8 48 12 113 12 65 0 105 -4
113 -12 9 -9 12 -83 12 -270 l0 -258 68 0 c40 0 73 -5 80 -12 7 -7 12 -42 12
-89 0 -76 0 -77 29 -82 51 -10 51 -64 0 -74 -28 -5 -29 -8 -29 -64 0 -56 1
-59 25 -59 35 0 52 -35 29 -61 -9 -10 -25 -19 -36 -19 -15 0 -18 -8 -18 -50
l0 -50 94 0 c67 0 97 -4 105 -14 8 -9 11 -101 9 -317 l-3 -304 -247 -3 -248
-2 0 -139 c0 -114 -3 -143 -16 -155 -13 -14 -65 -16 -409 -16 -344 0 -396 2
-409 16 -13 12 -16 41 -16 155 l0 139 -247 2 -248 3 -3 304 c-2 216 1 308 9
317 8 10 38 14 105 14 l94 0 0 50 c0 42 -3 50 -18 50 -11 0 -27 9 -36 19 -23
26 -6 61 29 61 24 0 25 3 25 59 0 56 -1 59 -29 64 -51 10 -51 64 0 74 l29 6 0
82 c0 95 0 95 86 95 l54 0 0 258 c0 187 3 261 12 270 8 8 48 12 113 12 65 0
105 -4 113 -12z m463 -118 c10 -6 19 -17 19 -26 0 -8 -25 -64 -55 -125 -52
-103 -58 -110 -83 -107 -19 2 -28 10 -30 25 -3 22 92 222 112 235 14 10 14 10
37 -2z m-107 -23 c9 -14 1 -38 -44 -125 -47 -91 -59 -107 -79 -107 -49 0 -49
28 -2 122 23 49 49 98 57 111 18 27 51 26 68 -1z"/>
<path d="M910 2110 l0 -230 48 0 47 0 0 230 0 230 -47 0 -48 0 0 -230z"/>
<path d="M1790 2110 l0 -230 48 0 47 0 0 230 0 230 -47 0 -48 0 0 -230z"/>
<path d="M768 1750 l-3 -50 640 0 640 0 -3 50 -4 50 -633 0 -633 0 -4 -50z"/>
<path d="M770 1560 l0 -60 635 0 635 0 0 60 0 60 -635 0 -635 0 0 -60z"/>
<path d="M768 1370 l-3 -50 640 0 640 0 -3 50 -4 50 -633 0 -633 0 -4 -50z"/>
<path d="M555 1000 l0 -240 850 0 850 0 0 240 0 240 -850 0 -850 0 0 -240z"/>
<path d="M1060 565 l0 -115 345 0 345 0 0 115 0 115 -345 0 -345 0 0 -115z"/>
</g>
</svg>
